<svg xmlns="http://www.w3.org/2000/svg" xmlns:xlink="http://www.w3.org/1999/xlink" x="0px" y="0px"
	 width="24px" height="24px" viewBox="0 0 24 24" >
<path d="M23.083,13.209v3.875c0,3.309-2.691,6-6,6h-10c-3.309,0-6-2.691-6-6v-10c0-3.309,2.691-6,6-6h3.126v2H7.083
	c-2.206,0-4,1.794-4,4v10c0,2.206,1.794,4,4,4h10c2.206,0,4-1.794,4-4v-3.875H23.083z M23.091,1.125c0,0-0.844,1.625-2.967,2.338
	C18.001,4.177,13.562,3.691,9.59,6.127c-3.974,2.436-4.111,6.821-3.866,8.281c0.141,0.84,0.658,1.293,1.073,1.527
	c0.168-0.955,0.428-1.973,0.843-2.957c1.835-3.854,5.429-5.004,6.028-5.255c0.32-0.124,0.902-0.305,1.594-0.483
	c0.701-0.161,1.451-0.367,2.186-0.681c1.455-0.577,2.711-1.271,2.707-1.272c0.004,0.001-1.17,0.874-2.584,1.647
	c-0.689,0.404-1.498,0.735-2.166,0.963c-0.67,0.25-1.221,0.474-1.531,0.592c-0.305,0.125-1.269,0.479-2.366,1.292
	c-0.558,0.415-1.111,0.918-1.708,1.572c-0.546,0.548-0.991,1.294-1.305,2.118c-0.549,1.439-0.744,3.025-0.812,4.299
	c0.352,0.523,1.035,0.994,2.342,1.088C21.321,17.658,23.091,1.125,23.091,1.125z"/>
</svg>
