<svg height="512pt" viewBox="-50 0 511 512" width="512pt" xmlns="http://www.w3.org/2000/svg"><path d="m201.03125 205.082031h-30v-32.148437c0-21.3125 17.335938-38.648438 38.648438-38.648438h24.121093c6.742188 0 12.230469-5.484375 12.230469-12.230468 0-6.742188-5.488281-12.226563-12.230469-12.226563h-92.542969c-23.285156 0-42.226562-18.945313-42.226562-42.230469v-1.785156c0-23.285156 18.941406-42.230469 42.226562-42.230469h67.835938c8.855469 0 16.0625-7.203125 16.0625-16.0625v-7.519531h30v7.519531c0 25.402344-20.664062 46.066407-46.0625 46.066407h-67.835938c-6.742187 0-12.226562 5.484374-12.226562 12.226562v1.785156c0 6.746094 5.484375 12.230469 12.226562 12.230469h92.542969c23.285157 0 42.230469 18.945313 42.230469 42.230469s-18.945312 42.226562-42.230469 42.226562h-24.121093c-4.769532 0-8.648438 3.878906-8.648438 8.648438zm0 0" fill="#c8ad92"/><path d="m305.53125 168.945312h-12.085938v-30h12.085938c8.453125 0 15.332031-6.878906 15.332031-15.332031 0-8.457031-6.878906-15.335937-15.332031-15.335937h-12.085938v-30h12.085938c24.996094 0 45.332031 20.335937 45.332031 45.335937 0 24.996094-20.335937 45.332031-45.332031 45.332031zm0 0" fill="#c8ad92"/><path d="m338.105469 344.460938h-15.136719v-30h15.136719c23.867187 0 43.285156-19.417969 43.285156-43.285157v-26.632812h-58.421875v-30h88.421875v56.632812c0 40.410157-32.875 73.285157-73.285156 73.285157zm0 0" fill="#66bd21"/><path d="m337.96875 189.171875v144.816406c0 58.722657-47.777344 106.492188-106.5 106.492188h-113.039062c-58.71875 0-106.5-47.769531-106.5-106.492188v-144.816406zm0 0" fill="#009100"/><path d="m105.710938 248.996094-49.21875 23.871094v92.800781h98.433593v-92.800781zm0 0" fill="#6ecd24"/><path d="m90.710938 189.167969h30v67.082031h-30zm0 0" fill="#dfcdbd"/><path d="m337.96875 189.171875v144.816406c0 58.722657-47.777344 106.492188-106.5 106.492188h-56.519531v-251.308594zm0 0" fill="#008300"/><path d="m349.398438 435.78125v30.46875c0 25.230469-20.519532 45.75-45.75 45.75h-257.398438c-25.230469 0-45.75-20.519531-45.75-45.75v-30.46875zm0 0" fill="#ffaa20"/><path d="m349.398438 435.78125v30.46875c0 25.230469-20.519532 45.75-45.75 45.75h-128.699219v-76.21875zm0 0" fill="#ff8900"/></svg>